<svg width="20" height="20" fill="none" xmlns="http://www.w3.org/2000/svg"><path d="M14.688 1.406c-2.32 0-3.88 1.14-4.688 1.936-.808-.796-2.369-1.936-4.688-1.936C2.138 1.406 0 3.957 0 7.08c0 4.079 3.877 6.647 9.5 11.333a.78.78 0 001 0C16.122 13.728 20 11.159 20 7.08c0-3.125-2.14-5.674-5.313-5.674zM10 16.797C4.83 12.52 1.562 10.244 1.562 7.08c0-2.043 1.289-4.111 3.75-4.111 1.099 0 2.107.33 2.998.982.665.487 1.02.986 1.043 1.018a.774.774 0 001.294 0A4.86 4.86 0 0111.69 3.95a4.975 4.975 0 012.998-.982c2.461 0 3.75 2.068 3.75 4.111 0 3.16-3.25 5.425-8.438 9.717z" fill="#231F20"/></svg>