<svg width="20" height="20" fill="none" xmlns="http://www.w3.org/2000/svg"><g clip-path="url(#clip0_393_14176)"><path d="M18.645 14.218a10.056 10.056 0 00-3.592-3.62 9.932 9.932 0 00-1.889-.86 5.386 5.386 0 002.207-4.347A5.397 5.397 0 009.981 0 5.397 5.397 0 004.59 5.39c0 1.783.87 3.366 2.207 4.348a9.94 9.94 0 00-1.89.86 10.057 10.057 0 00-3.59 3.62.78.78 0 000 .783A9.996 9.996 0 009.98 20a10 10 0 008.664-5 .782.782 0 000-.782zM6.152 5.391a3.832 3.832 0 013.829-3.829 3.832 3.832 0 013.828 3.829A3.832 3.832 0 019.98 9.219 3.832 3.832 0 016.152 5.39zm3.829 13.046a8.436 8.436 0 01-7.072-3.828 8.435 8.435 0 017.071-3.828 8.435 8.435 0 017.072 3.828 8.436 8.436 0 01-7.071 3.829z" fill="#231F20"/></g><defs><clipPath id="clip0_393_14176"><path fill="#fff" d="M0 0h20v20H0z"/></clipPath></defs></svg>